<svg xmlns="http://www.w3.org/2000/svg" version="1.1" baseProfile="full" width="152" height="152">
<rect x="1" y="1" width="10" height="10" fill="#ffffff" stroke="black" stroke-width="0.5" fill-opacity="0" />
<rect x="1" y="11" width="10" height="10" fill="#ffffff" stroke="black" stroke-width="0.5" fill-opacity="0" />
<rect x="1" y="21" width="10" height="10" fill="#ffffff" stroke="black" stroke-width="0.5" fill-opacity="0" />
<rect x="1" y="31" width="10" height="10" fill="#ffffff" stroke="black" stroke-width="0.5" fill-opacity="0" />
<rect x="1" y="41" width="10" height="10" fill="#ffffff" stroke="black" stroke-width="0.5" fill-opacity="0" />
<rect x="1" y="51" width="10" height="10" fill="#ffffff" stroke="black" stroke-width="0.5" fill-opacity="0" />
<rect x="1" y="61" width="10" height="10" fill="#ffffff" stroke="black" stroke-width="0.5" fill-opacity="0" />
<rect x="1" y="71" width="10" height="10" fill="#ffffff" stroke="black" stroke-width="0.5" fill-opacity="0" />
<rect x="1" y="81" width="10" height="10" fill="#ffffff" stroke="black" stroke-width="0.5" fill-opacity="0" />
<rect x="1" y="91" width="10" height="10" fill="#ffffff" stroke="black" stroke-width="0.5" fill-opacity="0" />
<rect x="1" y="101" width="10" height="10" fill="#ffffff" stroke="black" stroke-width="0.5" fill-opacity="0" />
<rect x="1" y="111" width="10" height="10" fill="#ffffff" stroke="black" stroke-width="0.5" fill-opacity="0" />
<rect x="1" y="121" width="10" height="10" fill="#ffffff" stroke="black" stroke-width="0.5" fill-opacity="0" />
<rect x="1" y="131" width="10" height="10" fill="#ffffff" stroke="black" stroke-width="0.5" fill-opacity="0" />
<rect x="1" y="141" width="10" height="10" fill="#ffffff" stroke="black" stroke-width="0.5" fill-opacity="0" />
<rect x="11" y="1" width="10" height="10" fill="#ffffff" stroke="black" stroke-width="0.5" fill-opacity="0" />
<rect x="11" y="11" width="10" height="10" fill="#ffffff" stroke="black" stroke-width="0.5" fill-opacity="0" />
<rect x="11" y="21" width="10" height="10" fill="#ffffff" stroke="black" stroke-width="0.5" fill-opacity="0" />
<rect x="11" y="31" width="10" height="10" fill="#ffffff" stroke="black" stroke-width="0.5" fill-opacity="0" />
<rect x="11" y="41" width="10" height="10" fill="#ffffff" stroke="black" stroke-width="0.5" fill-opacity="0" />
<rect x="11" y="51" width="10" height="10" fill="#ffffff" stroke="black" stroke-width="0.5" fill-opacity="0" />
<rect x="11" y="61" width="10" height="10" fill="#ffffff" stroke="black" stroke-width="0.5" fill-opacity="0" />
<rect x="11" y="71" width="10" height="10" fill="#ffffff" stroke="black" stroke-width="0.5" fill-opacity="0" />
<rect x="11" y="81" width="10" height="10" fill="#ffffff" stroke="black" stroke-width="0.5" fill-opacity="0" />
<rect x="11" y="91" width="10" height="10" fill="#ffffff" stroke="black" stroke-width="0.5" fill-opacity="0" />
<rect x="11" y="101" width="10" height="10" fill="#ffffff" stroke="black" stroke-width="0.5" fill-opacity="0" />
<rect x="11" y="111" width="10" height="10" fill="#ffffff" stroke="black" stroke-width="0.5" fill-opacity="0" />
<rect x="11" y="121" width="10" height="10" fill="#ffffff" stroke="black" stroke-width="0.5" fill-opacity="0" />
<rect x="11" y="131" width="10" height="10" fill="#ffffff" stroke="black" stroke-width="0.5" fill-opacity="0" />
<rect x="11" y="141" width="10" height="10" fill="#ffffff" stroke="black" stroke-width="0.5" fill-opacity="0" />
<rect x="21" y="1" width="10" height="10" fill="#ffffff" stroke="black" stroke-width="0.5" fill-opacity="0" />
<rect x="21" y="11" width="10" height="10" fill="#ffffff" stroke="black" stroke-width="0.5" fill-opacity="0" />
<rect x="21" y="21" width="10" height="10" fill="#ffffff" stroke="black" stroke-width="0.5" fill-opacity="0" />
<rect x="21" y="31" width="10" height="10" fill="#ffffff" stroke="black" stroke-width="0.5" fill-opacity="0" />
<rect x="21" y="41" width="10" height="10" fill="#ffffff" stroke="black" stroke-width="0.5" fill-opacity="0" />
<rect x="21" y="51" width="10" height="10" fill="#ffffff" stroke="black" stroke-width="0.5" fill-opacity="0" />
<rect x="21" y="61" width="10" height="10" fill="#ffffff" stroke="black" stroke-width="0.5" fill-opacity="0" />
<rect x="21" y="71" width="10" height="10" fill="#ffffff" stroke="black" stroke-width="0.5" fill-opacity="0" />
<rect x="21" y="81" width="10" height="10" fill="#ffffff" stroke="black" stroke-width="0.5" fill-opacity="0" />
<rect x="21" y="91" width="10" height="10" fill="#ffffff" stroke="black" stroke-width="0.5" fill-opacity="0" />
<rect x="21" y="101" width="10" height="10" fill="#ffffff" stroke="black" stroke-width="0.5" fill-opacity="0" />
<rect x="21" y="111" width="10" height="10" fill="#ffffff" stroke="black" stroke-width="0.5" fill-opacity="0" />
<rect x="21" y="121" width="10" height="10" fill="#ffffff" stroke="black" stroke-width="0.5" fill-opacity="0" />
<rect x="21" y="131" width="10" height="10" fill="#ffffff" stroke="black" stroke-width="0.5" fill-opacity="0" />
<rect x="21" y="141" width="10" height="10" fill="#ffffff" stroke="black" stroke-width="0.5" fill-opacity="0" />
<rect x="31" y="1" width="10" height="10" fill="#ffffff" stroke="black" stroke-width="0.5" fill-opacity="0" />
<rect x="31" y="11" width="10" height="10" fill="#ffffff" stroke="black" stroke-width="0.5" fill-opacity="0" />
<rect x="31" y="21" width="10" height="10" fill="#ffffff" stroke="black" stroke-width="0.5" fill-opacity="0" />
<rect x="31" y="31" width="10" height="10" fill="#ffffff" stroke="black" stroke-width="0.5" fill-opacity="0" />
<rect x="31" y="41" width="10" height="10" fill="#ffffff" stroke="black" stroke-width="0.5" fill-opacity="0" />
<rect x="31" y="51" width="10" height="10" fill="#ffffff" stroke="black" stroke-width="0.5" fill-opacity="0" />
<rect x="31" y="61" width="10" height="10" fill="#ffffff" stroke="black" stroke-width="0.5" fill-opacity="0" />
<rect x="31" y="71" width="10" height="10" fill="#ffffff" stroke="black" stroke-width="0.5" fill-opacity="0" />
<rect x="31" y="81" width="10" height="10" fill="#ffffff" stroke="black" stroke-width="0.5" fill-opacity="0" />
<rect x="31" y="91" width="10" height="10" fill="#ffffff" stroke="black" stroke-width="0.5" fill-opacity="0" />
<rect x="31" y="101" width="10" height="10" fill="#ffffff" stroke="black" stroke-width="0.5" fill-opacity="0" />
<rect x="31" y="111" width="10" height="10" fill="#ffffff" stroke="black" stroke-width="0.5" fill-opacity="0" />
<rect x="31" y="121" width="10" height="10" fill="#ffffff" stroke="black" stroke-width="0.5" fill-opacity="0" />
<rect x="31" y="131" width="10" height="10" fill="#ffffff" stroke="black" stroke-width="0.5" fill-opacity="0" />
<rect x="31" y="141" width="10" height="10" fill="#ffffff" stroke="black" stroke-width="0.5" fill-opacity="0" />
<rect x="41" y="1" width="10" height="10" fill="#ffffff" stroke="black" stroke-width="0.5" fill-opacity="0" />
<rect x="41" y="11" width="10" height="10" fill="#ffffff" stroke="black" stroke-width="0.5" fill-opacity="0" />
<rect x="41" y="21" width="10" height="10" fill="#ffffff" stroke="black" stroke-width="0.5" fill-opacity="0" />
<rect x="41" y="31" width="10" height="10" fill="#ffffff" stroke="black" stroke-width="0.5" fill-opacity="0" />
<rect x="41" y="41" width="10" height="10" fill="#ffffff" stroke="black" stroke-width="0.5" fill-opacity="0" />
<rect x="41" y="51" width="10" height="10" fill="#ffffff" stroke="black" stroke-width="0.5" fill-opacity="0" />
<rect x="41" y="61" width="10" height="10" fill="#ffffff" stroke="black" stroke-width="0.5" fill-opacity="0" />
<rect x="41" y="71" width="10" height="10" fill="#ffffff" stroke="black" stroke-width="0.5" fill-opacity="0" />
<rect x="41" y="81" width="10" height="10" fill="#ffffff" stroke="black" stroke-width="0.5" fill-opacity="0" />
<rect x="41" y="91" width="10" height="10" fill="#ffffff" stroke="black" stroke-width="0.5" fill-opacity="0" />
<rect x="41" y="101" width="10" height="10" fill="#ffffff" stroke="black" stroke-width="0.5" fill-opacity="0" />
<rect x="41" y="111" width="10" height="10" fill="#ffffff" stroke="black" stroke-width="0.5" fill-opacity="0" />
<rect x="41" y="121" width="10" height="10" fill="#ffffff" stroke="black" stroke-width="0.5" fill-opacity="0" />
<rect x="41" y="131" width="10" height="10" fill="#ffffff" stroke="black" stroke-width="0.5" fill-opacity="0" />
<rect x="41" y="141" width="10" height="10" fill="#ffffff" stroke="black" stroke-width="0.5" fill-opacity="0" />
<rect x="51" y="1" width="10" height="10" fill="#ffffff" stroke="black" stroke-width="0.5" fill-opacity="0" />
<rect x="51" y="11" width="10" height="10" fill="#ffffff" stroke="black" stroke-width="0.5" fill-opacity="0" />
<rect x="51" y="21" width="10" height="10" fill="#ffffff" stroke="black" stroke-width="0.5" fill-opacity="0" />
<rect x="51" y="31" width="10" height="10" fill="#ffffff" stroke="black" stroke-width="0.5" fill-opacity="0" />
<rect x="51" y="41" width="10" height="10" fill="#ffffff" stroke="black" stroke-width="0.5" fill-opacity="0" />
<rect x="51" y="51" width="10" height="10" fill="#ffffff" stroke="black" stroke-width="0.5" fill-opacity="0" />
<rect x="51" y="61" width="10" height="10" fill="#ffffff" stroke="black" stroke-width="0.5" fill-opacity="0" />
<rect x="51" y="71" width="10" height="10" fill="#ffffff" stroke="black" stroke-width="0.5" fill-opacity="0" />
<rect x="51" y="81" width="10" height="10" fill="#ffffff" stroke="black" stroke-width="0.5" fill-opacity="0" />
<rect x="51" y="91" width="10" height="10" fill="#ffffff" stroke="black" stroke-width="0.5" fill-opacity="0" />
<rect x="51" y="101" width="10" height="10" fill="#ffffff" stroke="black" stroke-width="0.5" fill-opacity="0" />
<rect x="51" y="111" width="10" height="10" fill="#ffffff" stroke="black" stroke-width="0.5" fill-opacity="0" />
<rect x="51" y="121" width="10" height="10" fill="#ffffff" stroke="black" stroke-width="0.5" fill-opacity="0" />
<rect x="51" y="131" width="10" height="10" fill="#ffffff" stroke="black" stroke-width="0.5" fill-opacity="0" />
<rect x="51" y="141" width="10" height="10" fill="#ffffff" stroke="black" stroke-width="0.5" fill-opacity="0" />
<rect x="61" y="1" width="10" height="10" fill="#ffffff" stroke="black" stroke-width="0.5" fill-opacity="0" />
<rect x="61" y="11" width="10" height="10" fill="#ffffff" stroke="black" stroke-width="0.5" fill-opacity="0" />
<rect x="61" y="21" width="10" height="10" fill="#ffffff" stroke="black" stroke-width="0.5" fill-opacity="0" />
<rect x="61" y="31" width="10" height="10" fill="#ffffff" stroke="black" stroke-width="0.5" fill-opacity="0" />
<rect x="61" y="41" width="10" height="10" fill="#ffffff" stroke="black" stroke-width="0.5" fill-opacity="0" />
<rect x="61" y="51" width="10" height="10" fill="#ffffff" stroke="black" stroke-width="0.5" fill-opacity="0" />
<rect x="61" y="61" width="10" height="10" fill="#ffffff" stroke="black" stroke-width="0.5" fill-opacity="0" />
<rect x="61" y="71" width="10" height="10" fill="#ffffff" stroke="black" stroke-width="0.5" fill-opacity="0" />
<rect x="61" y="81" width="10" height="10" fill="#ffffff" stroke="black" stroke-width="0.5" fill-opacity="0" />
<rect x="61" y="91" width="10" height="10" fill="#ffffff" stroke="black" stroke-width="0.5" fill-opacity="0" />
<rect x="61" y="101" width="10" height="10" fill="#ffffff" stroke="black" stroke-width="0.5" fill-opacity="0" />
<rect x="61" y="111" width="10" height="10" fill="#ffffff" stroke="black" stroke-width="0.5" fill-opacity="0" />
<rect x="61" y="121" width="10" height="10" fill="#ffffff" stroke="black" stroke-width="0.5" fill-opacity="0" />
<rect x="61" y="131" width="10" height="10" fill="#ffffff" stroke="black" stroke-width="0.5" fill-opacity="0" />
<rect x="61" y="141" width="10" height="10" fill="#ffffff" stroke="black" stroke-width="0.5" fill-opacity="0" />
<rect x="71" y="1" width="10" height="10" fill="#ffffff" stroke="black" stroke-width="0.5" fill-opacity="0" />
<rect x="71" y="11" width="10" height="10" fill="#ffffff" stroke="black" stroke-width="0.5" fill-opacity="0" />
<rect x="71" y="21" width="10" height="10" fill="#ffffff" stroke="black" stroke-width="0.5" fill-opacity="0" />
<rect x="71" y="31" width="10" height="10" fill="#ffffff" stroke="black" stroke-width="0.5" fill-opacity="0" />
<rect x="71" y="41" width="10" height="10" fill="#ffffff" stroke="black" stroke-width="0.5" fill-opacity="0" />
<rect x="71" y="51" width="10" height="10" fill="#ffffff" stroke="black" stroke-width="0.5" fill-opacity="0" />
<rect x="71" y="61" width="10" height="10" fill="#ffffff" stroke="black" stroke-width="0.5" fill-opacity="0" />
<rect x="71" y="71" width="10" height="10" fill="#ffffff" stroke="black" stroke-width="0.5" fill-opacity="0" />
<rect x="71" y="81" width="10" height="10" fill="#ffffff" stroke="black" stroke-width="0.5" fill-opacity="0" />
<rect x="71" y="91" width="10" height="10" fill="#ffffff" stroke="black" stroke-width="0.5" fill-opacity="0" />
<rect x="71" y="101" width="10" height="10" fill="#ffffff" stroke="black" stroke-width="0.5" fill-opacity="0" />
<rect x="71" y="111" width="10" height="10" fill="#ffffff" stroke="black" stroke-width="0.5" fill-opacity="0" />
<rect x="71" y="121" width="10" height="10" fill="#ffffff" stroke="black" stroke-width="0.5" fill-opacity="0" />
<rect x="71" y="131" width="10" height="10" fill="#ffffff" stroke="black" stroke-width="0.5" fill-opacity="0" />
<rect x="71" y="141" width="10" height="10" fill="#ffffff" stroke="black" stroke-width="0.5" fill-opacity="0" />
<rect x="81" y="1" width="10" height="10" fill="#ffffff" stroke="black" stroke-width="0.5" fill-opacity="0" />
<rect x="81" y="11" width="10" height="10" fill="#ffffff" stroke="black" stroke-width="0.5" fill-opacity="0" />
<rect x="81" y="21" width="10" height="10" fill="#ffffff" stroke="black" stroke-width="0.5" fill-opacity="0" />
<rect x="81" y="31" width="10" height="10" fill="#ffffff" stroke="black" stroke-width="0.5" fill-opacity="0" />
<rect x="81" y="41" width="10" height="10" fill="#ffffff" stroke="black" stroke-width="0.5" fill-opacity="0" />
<rect x="81" y="51" width="10" height="10" fill="#ffffff" stroke="black" stroke-width="0.5" fill-opacity="0" />
<rect x="81" y="61" width="10" height="10" fill="#ffffff" stroke="black" stroke-width="0.5" fill-opacity="0" />
<rect x="81" y="71" width="10" height="10" fill="#ffffff" stroke="black" stroke-width="0.5" fill-opacity="0" />
<rect x="81" y="81" width="10" height="10" fill="#ffffff" stroke="black" stroke-width="0.5" fill-opacity="0" />
<rect x="81" y="91" width="10" height="10" fill="#ffffff" stroke="black" stroke-width="0.5" fill-opacity="0" />
<rect x="81" y="101" width="10" height="10" fill="#ffffff" stroke="black" stroke-width="0.5" fill-opacity="0" />
<rect x="81" y="111" width="10" height="10" fill="#ffffff" stroke="black" stroke-width="0.5" fill-opacity="0" />
<rect x="81" y="121" width="10" height="10" fill="#ffffff" stroke="black" stroke-width="0.5" fill-opacity="0" />
<rect x="81" y="131" width="10" height="10" fill="#ffffff" stroke="black" stroke-width="0.5" fill-opacity="0" />
<rect x="81" y="141" width="10" height="10" fill="#ffffff" stroke="black" stroke-width="0.5" fill-opacity="0" />
<rect x="91" y="1" width="10" height="10" fill="#ffffff" stroke="black" stroke-width="0.5" fill-opacity="0" />
<rect x="91" y="11" width="10" height="10" fill="#ffffff" stroke="black" stroke-width="0.5" fill-opacity="0" />
<rect x="91" y="21" width="10" height="10" fill="#ffffff" stroke="black" stroke-width="0.5" fill-opacity="0" />
<rect x="91" y="31" width="10" height="10" fill="#ffffff" stroke="black" stroke-width="0.5" fill-opacity="0" />
<rect x="91" y="41" width="10" height="10" fill="#ffffff" stroke="black" stroke-width="0.5" fill-opacity="0" />
<rect x="91" y="51" width="10" height="10" fill="#ffffff" stroke="black" stroke-width="0.5" fill-opacity="0" />
<rect x="91" y="61" width="10" height="10" fill="#ffffff" stroke="black" stroke-width="0.5" fill-opacity="0" />
<rect x="91" y="71" width="10" height="10" fill="#ffffff" stroke="black" stroke-width="0.5" fill-opacity="0" />
<rect x="91" y="81" width="10" height="10" fill="#ffffff" stroke="black" stroke-width="0.5" fill-opacity="0" />
<rect x="91" y="91" width="10" height="10" fill="#ffffff" stroke="black" stroke-width="0.5" fill-opacity="0" />
<rect x="91" y="101" width="10" height="10" fill="#ffffff" stroke="black" stroke-width="0.5" fill-opacity="0" />
<rect x="91" y="111" width="10" height="10" fill="#ffffff" stroke="black" stroke-width="0.5" fill-opacity="0" />
<rect x="91" y="121" width="10" height="10" fill="#ffffff" stroke="black" stroke-width="0.5" fill-opacity="0" />
<rect x="91" y="131" width="10" height="10" fill="#ffffff" stroke="black" stroke-width="0.5" fill-opacity="0" />
<rect x="91" y="141" width="10" height="10" fill="#ffffff" stroke="black" stroke-width="0.5" fill-opacity="0" />
<rect x="101" y="1" width="10" height="10" fill="#ffffff" stroke="black" stroke-width="0.5" fill-opacity="0" />
<rect x="101" y="11" width="10" height="10" fill="#ffffff" stroke="black" stroke-width="0.5" fill-opacity="0" />
<rect x="101" y="21" width="10" height="10" fill="#ffffff" stroke="black" stroke-width="0.5" fill-opacity="0" />
<rect x="101" y="31" width="10" height="10" fill="#ffffff" stroke="black" stroke-width="0.5" fill-opacity="0" />
<rect x="101" y="41" width="10" height="10" fill="#ffffff" stroke="black" stroke-width="0.5" fill-opacity="0" />
<rect x="101" y="51" width="10" height="10" fill="#ffffff" stroke="black" stroke-width="0.5" fill-opacity="0" />
<rect x="101" y="61" width="10" height="10" fill="#ffffff" stroke="black" stroke-width="0.5" fill-opacity="0" />
<rect x="101" y="71" width="10" height="10" fill="#ffffff" stroke="black" stroke-width="0.5" fill-opacity="0" />
<rect x="101" y="81" width="10" height="10" fill="#ffffff" stroke="black" stroke-width="0.5" fill-opacity="0" />
<rect x="101" y="91" width="10" height="10" fill="#ffffff" stroke="black" stroke-width="0.5" fill-opacity="0" />
<rect x="101" y="101" width="10" height="10" fill="#ffffff" stroke="black" stroke-width="0.5" fill-opacity="0" />
<rect x="101" y="111" width="10" height="10" fill="#ffffff" stroke="black" stroke-width="0.5" fill-opacity="0" />
<rect x="101" y="121" width="10" height="10" fill="#ffffff" stroke="black" stroke-width="0.5" fill-opacity="0" />
<rect x="101" y="131" width="10" height="10" fill="#ffffff" stroke="black" stroke-width="0.5" fill-opacity="0" />
<rect x="101" y="141" width="10" height="10" fill="#ffffff" stroke="black" stroke-width="0.5" fill-opacity="0" />
<rect x="111" y="1" width="10" height="10" fill="#ffffff" stroke="black" stroke-width="0.5" fill-opacity="0" />
<rect x="111" y="11" width="10" height="10" fill="#ffffff" stroke="black" stroke-width="0.5" fill-opacity="0" />
<rect x="111" y="21" width="10" height="10" fill="#ffffff" stroke="black" stroke-width="0.5" fill-opacity="0" />
<rect x="111" y="31" width="10" height="10" fill="#ffffff" stroke="black" stroke-width="0.5" fill-opacity="0" />
<rect x="111" y="41" width="10" height="10" fill="#ffffff" stroke="black" stroke-width="0.5" fill-opacity="0" />
<rect x="111" y="51" width="10" height="10" fill="#ffffff" stroke="black" stroke-width="0.5" fill-opacity="0" />
<rect x="111" y="61" width="10" height="10" fill="#ffffff" stroke="black" stroke-width="0.5" fill-opacity="0" />
<rect x="111" y="71" width="10" height="10" fill="#ffffff" stroke="black" stroke-width="0.5" fill-opacity="0" />
<rect x="111" y="81" width="10" height="10" fill="#ffffff" stroke="black" stroke-width="0.5" fill-opacity="0" />
<rect x="111" y="91" width="10" height="10" fill="#ffffff" stroke="black" stroke-width="0.5" fill-opacity="0" />
<rect x="111" y="101" width="10" height="10" fill="#ffffff" stroke="black" stroke-width="0.5" fill-opacity="0" />
<rect x="111" y="111" width="10" height="10" fill="#ffffff" stroke="black" stroke-width="0.5" fill-opacity="0" />
<rect x="111" y="121" width="10" height="10" fill="#ffffff" stroke="black" stroke-width="0.5" fill-opacity="0" />
<rect x="111" y="131" width="10" height="10" fill="#ffffff" stroke="black" stroke-width="0.5" fill-opacity="0" />
<rect x="111" y="141" width="10" height="10" fill="#ffffff" stroke="black" stroke-width="0.5" fill-opacity="0" />
<rect x="121" y="1" width="10" height="10" fill="#ffffff" stroke="black" stroke-width="0.5" fill-opacity="0" />
<rect x="121" y="11" width="10" height="10" fill="#ffffff" stroke="black" stroke-width="0.5" fill-opacity="0" />
<rect x="121" y="21" width="10" height="10" fill="#ffffff" stroke="black" stroke-width="0.5" fill-opacity="0" />
<rect x="121" y="31" width="10" height="10" fill="#ffffff" stroke="black" stroke-width="0.5" fill-opacity="0" />
<rect x="121" y="41" width="10" height="10" fill="#ffffff" stroke="black" stroke-width="0.5" fill-opacity="0" />
<rect x="121" y="51" width="10" height="10" fill="#ffffff" stroke="black" stroke-width="0.5" fill-opacity="0" />
<rect x="121" y="61" width="10" height="10" fill="#ffffff" stroke="black" stroke-width="0.5" fill-opacity="0" />
<rect x="121" y="71" width="10" height="10" fill="#ffffff" stroke="black" stroke-width="0.5" fill-opacity="0" />
<rect x="121" y="81" width="10" height="10" fill="#ffffff" stroke="black" stroke-width="0.5" fill-opacity="0" />
<rect x="121" y="91" width="10" height="10" fill="#ffffff" stroke="black" stroke-width="0.5" fill-opacity="0" />
<rect x="121" y="101" width="10" height="10" fill="#ffffff" stroke="black" stroke-width="0.5" fill-opacity="0" />
<rect x="121" y="111" width="10" height="10" fill="#ffffff" stroke="black" stroke-width="0.5" fill-opacity="0" />
<rect x="121" y="121" width="10" height="10" fill="#ffffff" stroke="black" stroke-width="0.5" fill-opacity="0" />
<rect x="121" y="131" width="10" height="10" fill="#ffffff" stroke="black" stroke-width="0.5" fill-opacity="0" />
<rect x="121" y="141" width="10" height="10" fill="#ffffff" stroke="black" stroke-width="0.5" fill-opacity="0" />
<rect x="131" y="1" width="10" height="10" fill="#ffffff" stroke="black" stroke-width="0.5" fill-opacity="0" />
<rect x="131" y="11" width="10" height="10" fill="#ffffff" stroke="black" stroke-width="0.5" fill-opacity="0" />
<rect x="131" y="21" width="10" height="10" fill="#ffffff" stroke="black" stroke-width="0.5" fill-opacity="0" />
<rect x="131" y="31" width="10" height="10" fill="#ffffff" stroke="black" stroke-width="0.5" fill-opacity="0" />
<rect x="131" y="41" width="10" height="10" fill="#ffffff" stroke="black" stroke-width="0.5" fill-opacity="0" />
<rect x="131" y="51" width="10" height="10" fill="#ffffff" stroke="black" stroke-width="0.5" fill-opacity="0" />
<rect x="131" y="61" width="10" height="10" fill="#ffffff" stroke="black" stroke-width="0.5" fill-opacity="0" />
<rect x="131" y="71" width="10" height="10" fill="#ffffff" stroke="black" stroke-width="0.5" fill-opacity="0" />
<rect x="131" y="81" width="10" height="10" fill="#ffffff" stroke="black" stroke-width="0.5" fill-opacity="0" />
<rect x="131" y="91" width="10" height="10" fill="#ffffff" stroke="black" stroke-width="0.5" fill-opacity="0" />
<rect x="131" y="101" width="10" height="10" fill="#ffffff" stroke="black" stroke-width="0.5" fill-opacity="0" />
<rect x="131" y="111" width="10" height="10" fill="#ffffff" stroke="black" stroke-width="0.5" fill-opacity="0" />
<rect x="131" y="121" width="10" height="10" fill="#ffffff" stroke="black" stroke-width="0.5" fill-opacity="0" />
<rect x="131" y="131" width="10" height="10" fill="#ffffff" stroke="black" stroke-width="0.5" fill-opacity="0" />
<rect x="131" y="141" width="10" height="10" fill="#ffffff" stroke="black" stroke-width="0.5" fill-opacity="0" />
<rect x="141" y="1" width="10" height="10" fill="#ffffff" stroke="black" stroke-width="0.5" fill-opacity="0" />
<rect x="141" y="11" width="10" height="10" fill="#ffffff" stroke="black" stroke-width="0.5" fill-opacity="0" />
<rect x="141" y="21" width="10" height="10" fill="#ffffff" stroke="black" stroke-width="0.5" fill-opacity="0" />
<rect x="141" y="31" width="10" height="10" fill="#ffffff" stroke="black" stroke-width="0.5" fill-opacity="0" />
<rect x="141" y="41" width="10" height="10" fill="#ffffff" stroke="black" stroke-width="0.5" fill-opacity="0" />
<rect x="141" y="51" width="10" height="10" fill="#ffffff" stroke="black" stroke-width="0.5" fill-opacity="0" />
<rect x="141" y="61" width="10" height="10" fill="#ffffff" stroke="black" stroke-width="0.5" fill-opacity="0" />
<rect x="141" y="71" width="10" height="10" fill="#ffffff" stroke="black" stroke-width="0.5" fill-opacity="0" />
<rect x="141" y="81" width="10" height="10" fill="#ffffff" stroke="black" stroke-width="0.5" fill-opacity="0" />
<rect x="141" y="91" width="10" height="10" fill="#ffffff" stroke="black" stroke-width="0.5" fill-opacity="0" />
<rect x="141" y="101" width="10" height="10" fill="#ffffff" stroke="black" stroke-width="0.5" fill-opacity="0" />
<rect x="141" y="111" width="10" height="10" fill="#ffffff" stroke="black" stroke-width="0.5" fill-opacity="0" />
<rect x="141" y="121" width="10" height="10" fill="#ffffff" stroke="black" stroke-width="0.5" fill-opacity="0" />
<rect x="141" y="131" width="10" height="10" fill="#ffffff" stroke="black" stroke-width="0.5" fill-opacity="0" />
<rect x="141" y="141" width="10" height="10" fill="#ffffff" stroke="black" stroke-width="0.5" fill-opacity="0" />
<rect x="131" y="141" width="10" height="10" fill="#670" stroke="black" stroke-width="0.5" />
<rect x="1" y="131" width="10" height="10" fill="#670" stroke="black" stroke-width="0.5" />
<rect x="121" y="141" width="10" height="10" fill="#325" stroke="black" stroke-width="0.5" />
<rect x="1" y="121" width="10" height="10" fill="#325" stroke="black" stroke-width="0.5" />
<rect x="111" y="141" width="10" height="10" fill="#008" stroke="black" stroke-width="0.5" />
<rect x="1" y="111" width="10" height="10" fill="#008" stroke="black" stroke-width="0.5" />
<rect x="101" y="141" width="10" height="10" fill="#ddc" stroke="black" stroke-width="0.5" />
<rect x="1" y="101" width="10" height="10" fill="#ddc" stroke="black" stroke-width="0.5" />
<rect x="91" y="141" width="10" height="10" fill="#251" stroke="black" stroke-width="0.5" />
<rect x="1" y="91" width="10" height="10" fill="#251" stroke="black" stroke-width="0.5" />
<rect x="81" y="141" width="10" height="10" fill="#ac4" stroke="black" stroke-width="0.5" />
<rect x="1" y="81" width="10" height="10" fill="#ac4" stroke="black" stroke-width="0.5" />
<rect x="71" y="141" width="10" height="10" fill="#84e" stroke="black" stroke-width="0.5" />
<rect x="1" y="71" width="10" height="10" fill="#84e" stroke="black" stroke-width="0.5" />
<rect x="61" y="141" width="10" height="10" fill="#510" stroke="black" stroke-width="0.5" />
<rect x="1" y="61" width="10" height="10" fill="#510" stroke="black" stroke-width="0.5" />
<rect x="51" y="141" width="10" height="10" fill="#1b4" stroke="black" stroke-width="0.5" />
<rect x="1" y="51" width="10" height="10" fill="#1b4" stroke="black" stroke-width="0.5" />
<rect x="41" y="141" width="10" height="10" fill="#107" stroke="black" stroke-width="0.5" />
<rect x="1" y="41" width="10" height="10" fill="#107" stroke="black" stroke-width="0.5" />
<rect x="51" y="131" width="10" height="10" fill="#686868" stroke="black" stroke-width="0.5" />
<rect x="101" y="11" width="10" height="10" fill="#686868" stroke="black" stroke-width="0.5" />
<rect x="81" y="81" width="10" height="10" fill="#686868" stroke="black" stroke-width="0.5" />
<rect x="11" y="101" width="10" height="10" fill="#686868" stroke="black" stroke-width="0.5" />
<rect x="131" y="51" width="10" height="10" fill="#686868" stroke="black" stroke-width="0.5" />
</svg>